<svg width="256" height="256" viewBox="0 0 256 256" fill="none" xmlns="http://www.w3.org/2000/svg">
  <rect width="256" height="256" rx="64" fill="#0C0C0E"/>
  <path d="M128 40C79.3989 40 40 79.3989 40 128C40 176.601 79.3989 216 128 216C176.601 216 216 176.601 216 128C216 79.3989 176.601 40 128 40ZM168 144H88C83.5817 144 80 140.418 80 136V120C80 115.582 83.5817 112 88 112H168C172.418 112 176 115.582 176 120V136C176 140.418 172.418 144 168 144ZM128 104C105.909 104 88 86.0914 88 64H168C168 86.0914 150.091 104 128 104ZM128 152C150.091 152 168 169.909 168 192H88C88 169.909 105.909 152 128 152Z" fill="#F54748"/>
</svg>